<?xml version="1.0" encoding="UTF-8"?>
<svg viewBox="0 0 200 220" xmlns="http://www.w3.org/2000/svg">
  <!-- colour styles -->
  <defs>
    <style>
      .gold     { stroke:#d4af37; fill:none; stroke-width:4; stroke-linecap:round; stroke-linejoin:round }
      .fillGold { fill:#d4af37 }
    </style>
  </defs>

  <!-- ornate shield (double border) -->
  <path d="M30 40 L170 40 L170 110
           L100 190 L30 110 Z" class="gold"/>
  <path d="M40 52 L160 52 L160 108
           L100 178 L40 108 Z" class="gold" stroke-width="2"/>

  <!-- scroll flourishes at top -->
  <path d="M50 48 q10 -12 20 0" class="gold"/>
  <path d="M150 48 q-10 -12 -20 0" class="gold"/>

  <!-- left laurel (6 leaves) -->
  <g class="gold" transform="translate(20,80)">
    <path d="M0 0  q 18 -18 36  0"/>
    <path d="M0 14 q 18 -18 36  0"/>
    <path d="M0 28 q 18 -18 36  0"/>
    <path d="M0 42 q 18 -18 36  0"/>
    <path d="M0 56 q 18 -18 36  0"/>
    <path d="M0 70 q 18 -18 36  0"/>
  </g>

  <!-- right laurel (mirror) -->
  <g class="gold" transform="translate(180,80) scale(-1,1)">
    <path d="M0 0  q 18 -18 36  0"/>
    <path d="M0 14 q 18 -18 36  0"/>
    <path d="M0 28 q 18 -18 36  0"/>
    <path d="M0 42 q 18 -18 36  0"/>
    <path d="M0 56 q 18 -18 36  0"/>
    <path d="M0 70 q 18 -18 36  0"/>
  </g>

  <!-- star above monogram -->
  <polygon points="100,62 106,78 124,78 110,88
                    116,104 100,95 84,104 90,88
                    76,78 94,78" class="fillGold"/>

  <!-- ornate G -->
  <text x="100" y="142" text-anchor="middle"
        font-family="Georgia,serif" font-size="70"
        font-weight="700" class="fillGold"
        style="letter-spacing:-2px">G</text>
</svg>
